<svg xmlns="http://www.w3.org/2000/svg" viewBox="0 0 72 72" fill="none">
  <!-- Shield outline -->
  <path d="M36 5 C36 5 14 13 14 16 L14 42 C14 58 36 70 36 70 C36 70 58 58 58 42 L58 16 C58 13 36 5 36 5 Z"
    fill="#ea580c" stroke="#ea580c" stroke-width="1.5" stroke-linejoin="round"/>
  <!-- Shield inner -->
  <path d="M36 10 C36 10 19 17 19 19.5 L19 42 C19 55 36 65 36 65 C36 65 53 55 53 42 L53 19.5 C53 17 36 10 36 10 Z"
    fill="#111111"/>
  <!-- Orange arm band -->
  <rect x="19" y="33" width="34" height="13" fill="#ea580c"/>
  <!-- Left sleeve -->
  <rect x="19" y="33" width="11" height="13" rx="1.5" fill="#ea580c"/>
  <!-- Right sleeve -->
  <rect x="42" y="33" width="11" height="13" rx="1.5" fill="#ea580c"/>
  <!-- Left hand -->
  <ellipse cx="30" cy="39.5" rx="6" ry="5" fill="#1a1a1a"/>
  <!-- Right hand -->
  <ellipse cx="43" cy="39.5" rx="6" ry="5" fill="#1a1a1a"/>
  <!-- Finger lines left -->
  <line x1="25" y1="37" x2="35" y2="37" stroke="#ea580c" stroke-width="1" stroke-linecap="round"/>
  <line x1="25" y1="39.5" x2="35" y2="39.5" stroke="#ea580c" stroke-width="1" stroke-linecap="round"/>
  <line x1="25" y1="42" x2="35" y2="42" stroke="#ea580c" stroke-width="1" stroke-linecap="round"/>
  <!-- Finger lines right -->
  <line x1="37" y1="37" x2="48" y2="37" stroke="#ea580c" stroke-width="1" stroke-linecap="round"/>
  <line x1="37" y1="39.5" x2="48" y2="39.5" stroke="#ea580c" stroke-width="1" stroke-linecap="round"/>
  <line x1="37" y1="42" x2="48" y2="42" stroke="#ea580c" stroke-width="1" stroke-linecap="round"/>
</svg>